<?xml version="1.0" standalone="no"?>
<!DOCTYPE svg PUBLIC "-//W3C//DTD SVG 20010904//EN"
 "http://www.w3.org/TR/2001/REC-SVG-20010904/DTD/svg10.dtd">
<svg version="1.0" xmlns="http://www.w3.org/2000/svg"
 width="259.000000pt" height="120.000000pt" viewBox="0 0 259.000000 120.000000"
 preserveAspectRatio="xMidYMid meet">

<g transform="translate(0.000000,120.000000) scale(0.100000,-0.100000)"
fill="#000000" stroke="none">
<path d="M505 1098 c-3 -10 -70 -218 -129 -405 -6 -20 -4 -23 17 -23 20 0 26
7 37 45 l13 45 93 0 94 0 11 -45 c10 -38 15 -45 35 -45 13 0 24 3 24 8 0 4
-31 101 -68 217 -65 200 -70 210 -95 213 -16 2 -29 -2 -32 -10z m78 -191 l35
-117 -83 0 -82 0 40 136 c28 92 43 129 48 117 4 -10 23 -72 42 -136z"/>
<path d="M850 891 l0 -221 25 0 25 0 2 178 3 177 95 -177 c88 -164 97 -178
123 -178 l27 0 0 220 0 220 -25 0 -25 0 -2 -177 -3 -177 -95 175 c-84 154 -99
174 -123 177 l-27 3 0 -220z"/>
<path d="M1350 891 l0 -221 25 0 25 0 2 178 3 177 95 -177 c88 -164 97 -178
123 -178 l27 0 0 220 0 220 -25 0 -25 0 -2 -177 -3 -177 -95 175 c-84 154 -99
174 -123 177 l-27 3 0 -220z"/>
<path d="M1935 1098 c-3 -10 -70 -218 -129 -405 -6 -20 -4 -23 17 -23 20 0 26
7 37 45 l13 45 93 0 94 0 11 -45 c10 -38 15 -45 35 -45 13 0 24 3 24 8 0 4
-31 101 -68 217 -65 200 -70 210 -95 213 -16 2 -29 -2 -32 -10z m78 -191 l35
-117 -83 0 -82 0 40 136 c28 92 43 129 48 117 4 -10 23 -72 42 -136z"/>
<path d="M835 580 c-4 -7 135 -10 409 -10 271 0 416 3 416 10 0 14 -817 14
-825 0z"/>
<path d="M380 470 c-18 -18 -20 -33 -20 -145 0 -112 2 -127 20 -145 43 -43
140 -8 140 50 0 30 -24 24 -37 -10 -9 -24 -17 -30 -40 -30 -48 0 -53 14 -53
137 0 108 1 113 24 128 31 20 63 6 72 -30 8 -32 34 -33 34 -2 0 60 -95 92
-140 47z"/>
<path d="M570 325 c0 -140 2 -165 15 -165 12 0 15 15 15 75 l0 75 45 0 45 0 0
-75 c0 -60 3 -75 15 -75 13 0 15 25 15 165 0 138 -2 165 -15 165 -11 0 -15
-17 -17 -72 l-3 -73 -42 -3 -43 -3 0 75 c0 61 -3 76 -15 76 -13 0 -15 -25 -15
-165z"/>
<path d="M770 360 c0 -167 14 -200 86 -200 68 0 84 39 84 206 0 117 -1 124
-20 124 -19 0 -20 -7 -20 -139 0 -149 -5 -166 -52 -159 -38 5 -48 42 -48 176
0 102 -2 122 -15 122 -13 0 -15 -21 -15 -130z"/>
<path d="M980 325 c0 -158 1 -165 20 -165 19 0 20 7 20 128 l1 127 25 -47 c13
-27 26 -48 29 -48 3 0 16 21 29 48 l25 47 1 -127 c0 -121 1 -128 20 -128 19 0
20 7 20 165 0 158 -1 165 -20 165 -14 0 -28 -16 -48 -55 l-28 -56 -27 56 c-19
39 -32 55 -47 55 -19 0 -20 -6 -20 -165z"/>
<path d="M1256 473 c-9 -29 -66 -292 -66 -303 0 -24 28 -7 36 23 9 30 13 32
54 32 42 0 45 -2 48 -28 3 -25 26 -47 37 -35 3 3 -11 75 -30 161 -19 86 -35
159 -35 162 0 14 -39 3 -44 -12z m44 -132 c10 -44 15 -82 12 -85 -8 -9 -72 -7
-72 2 0 23 34 172 38 167 3 -3 13 -41 22 -84z"/>
<path d="M1400 325 c0 -140 2 -165 15 -165 12 0 15 14 15 63 1 38 6 69 15 81
18 24 14 28 55 -66 23 -56 38 -78 51 -78 15 0 12 13 -26 99 -36 83 -41 102
-31 118 7 10 25 39 40 66 25 44 26 47 7 47 -14 0 -32 -22 -63 -77 l-43 -78 -3
78 c-2 59 -6 77 -17 77 -13 0 -15 -27 -15 -165z"/>
<path d="M1610 470 c-18 -18 -20 -33 -20 -145 0 -115 2 -126 22 -145 31 -28
88 -27 116 3 20 21 22 34 22 145 0 143 -10 162 -80 162 -27 0 -47 -7 -60 -20z
m90 -20 c17 -17 20 -33 20 -121 0 -114 -9 -139 -48 -139 -47 0 -52 14 -52 136
0 105 1 114 22 128 29 20 34 20 58 -4z"/>
<path d="M1780 478 c1 -7 15 -80 33 -163 29 -129 36 -150 52 -150 16 0 23 21
52 150 38 174 38 175 18 175 -16 0 -18 -4 -45 -149 -11 -57 -21 -106 -24 -108
-2 -2 -14 54 -27 124 -19 102 -28 128 -42 131 -9 2 -17 -2 -17 -10z"/>
<path d="M2036 473 c-9 -29 -66 -292 -66 -303 0 -24 28 -7 36 23 9 30 13 32
54 32 42 0 45 -2 48 -28 3 -25 26 -47 37 -35 3 3 -11 75 -30 161 -19 86 -35
159 -35 162 0 14 -39 3 -44 -12z m44 -132 c10 -44 15 -82 12 -85 -8 -9 -72 -7
-72 2 0 23 34 172 38 167 3 -3 13 -41 22 -84z"/>
<path d="M10 50 c0 -7 433 -10 1280 -10 847 0 1280 3 1280 10 0 7 -433 10
-1280 10 -847 0 -1280 -3 -1280 -10z"/>
</g>
</svg>
