<?xml version="1.0" standalone="no"?>
<!DOCTYPE svg PUBLIC "-//W3C//DTD SVG 20010904//EN"
 "http://www.w3.org/TR/2001/REC-SVG-20010904/DTD/svg10.dtd">
<svg version="1.0" xmlns="http://www.w3.org/2000/svg"
 width="259.000000pt" height="120.000000pt" viewBox="0 0 259.000000 120.000000"
 preserveAspectRatio="xMidYMid meet">

<g transform="translate(0.000000,120.000000) scale(0.100000,-0.100000)"
fill="#000000" stroke="none">
<path d="M545 1160 c-11 -4 -49 -6 -85 -3 -44 3 -78 0 -105 -10 l-40 -16 38 0
c49 -1 53 -15 31 -97 -13 -48 -21 -63 -32 -59 -34 13 -63 17 -79 10 -15 -5
-13 -9 12 -20 64 -28 69 -35 52 -91 -22 -75 -46 -126 -69 -151 -27 -29 -17
-29 39 -2 41 20 45 20 62 5 26 -23 30 -20 24 22 -3 20 -1 53 4 72 l10 35 29
-47 c16 -26 31 -47 34 -47 3 0 18 21 34 47 l29 47 13 -30 c7 -16 13 -47 14
-67 0 -39 15 -49 38 -26 8 8 26 5 72 -15 l60 -26 -39 49 c-41 52 -81 143 -81
185 0 13 -4 26 -9 29 -17 11 -44 134 -38 176 3 22 4 40 4 39 -1 0 -11 -4 -22
-9z m-47 -272 c-24 -35 -31 -35 -53 -2 -18 27 -13 69 16 141 12 28 12 27 34
-42 23 -70 23 -70 3 -97z"/>
<path d="M783 1131 c38 -42 39 -45 33 -99 -9 -81 -9 -111 -1 -164 9 -54 -11
-123 -50 -173 -23 -31 -23 -33 -4 -28 11 3 36 21 55 39 l36 33 31 -20 c43 -26
51 -24 30 7 -11 18 -18 53 -20 113 l-4 86 35 -63 c67 -122 132 -191 221 -233
51 -25 72 -29 140 -28 44 0 98 6 120 13 l40 12 -70 6 c-43 3 -86 13 -112 27
-50 25 -54 26 -47 6 12 -31 -52 -6 -83 33 -18 22 -16 128 2 188 13 44 13 54
-1 97 -21 62 -12 107 29 154 32 36 32 36 7 30 -14 -3 -53 -9 -87 -13 -61 -6
-62 -7 -48 -27 12 -17 15 -55 15 -172 -1 -178 2 -178 -96 20 -58 118 -62 131
-49 151 13 21 12 22 -39 28 -28 3 -68 9 -87 13 l-34 6 38 -42z"/>
<path d="M1283 1131 c38 -42 39 -45 33 -99 -9 -81 -9 -111 -1 -163 8 -53 -5
-105 -41 -161 -32 -50 -10 -51 41 -4 l37 35 31 -20 c43 -26 51 -24 30 7 -11
18 -18 53 -20 113 l-4 86 35 -63 c67 -122 132 -191 221 -233 51 -25 72 -29
140 -28 44 0 98 6 120 13 l40 12 -70 6 c-43 3 -86 13 -112 27 -50 25 -54 26
-47 6 12 -31 -52 -6 -83 33 -18 22 -16 128 2 188 13 44 13 54 -1 97 -21 62
-12 107 29 154 32 36 32 36 7 30 -14 -3 -53 -9 -87 -13 -61 -6 -62 -7 -48 -27
12 -17 15 -55 15 -172 -1 -178 2 -178 -96 20 -58 118 -62 131 -49 151 13 21
12 22 -39 28 -28 3 -68 9 -87 13 l-34 6 38 -42z"/>
<path d="M2045 1160 c-11 -4 -49 -6 -85 -3 -44 3 -78 0 -105 -10 l-40 -16 38
0 c49 -1 53 -15 31 -97 -13 -48 -21 -63 -32 -59 -34 13 -63 17 -79 10 -15 -5
-13 -9 12 -20 64 -28 69 -35 52 -91 -22 -75 -46 -126 -69 -151 -27 -29 -17
-29 39 -2 41 20 45 20 62 5 26 -23 30 -20 24 22 -3 20 -1 53 4 72 l10 35 29
-47 c16 -26 31 -47 34 -47 3 0 18 21 34 47 l29 47 13 -30 c7 -16 13 -47 14
-67 0 -39 15 -49 38 -26 8 8 26 5 72 -15 l60 -26 -39 49 c-41 52 -81 143 -81
185 0 13 -4 26 -9 29 -17 11 -44 134 -38 176 3 22 4 40 4 39 -1 0 -11 -4 -22
-9z m-47 -272 c-24 -35 -31 -35 -53 -2 -18 27 -13 69 16 141 12 28 12 27 34
-42 23 -70 23 -70 3 -97z"/>
<path d="M1043 513 c114 -2 300 -2 415 0 114 1 20 2 -208 2 -228 0 -322 -1
-207 -2z"/>
<path d="M1688 423 c-45 -13 -47 -15 -36 -38 7 -17 7 -32 -1 -55 -7 -22 -8
-45 -1 -77 6 -25 8 -54 5 -64 -5 -14 2 -20 32 -28 48 -14 64 -14 118 0 41 10
43 12 33 35 -8 17 -8 34 -1 59 8 24 8 47 1 71 -5 20 -7 47 -4 60 6 21 1 24
-36 34 -24 6 -47 12 -53 14 -5 1 -31 -4 -57 -11z m76 -33 c25 -9 26 -12 26
-99 0 -79 -2 -92 -19 -101 -13 -7 -28 -7 -45 0 -25 9 -26 12 -26 99 0 75 3 92
18 100 21 13 16 13 46 1z"/>
<path d="M120 421 c0 -3 7 -13 16 -22 14 -16 15 -25 6 -62 -6 -24 -9 -60 -5
-79 3 -20 1 -50 -5 -66 l-10 -29 64 -6 c41 -4 74 -2 91 6 26 11 28 16 23 52
l-6 40 -19 -33 c-17 -27 -25 -32 -50 -30 -30 3 -30 4 -33 68 -2 36 0 80 3 98
5 28 10 32 36 32 23 0 32 -6 40 -26 12 -33 15 -30 27 23 l10 42 -94 -2 c-52
-1 -94 -4 -94 -6z"/>
<path d="M320 414 c0 -6 9 -18 21 -26 19 -12 20 -17 10 -54 -8 -29 -8 -50 0
-71 8 -24 7 -39 -5 -67 l-15 -36 43 0 43 0 -10 38 c-15 57 -5 74 40 70 38 -3
38 -3 38 -49 0 -25 6 -53 14 -62 12 -15 15 -15 36 1 13 9 20 22 15 27 -10 14
-10 206 0 225 7 13 2 15 -29 12 l-37 -4 4 -54 4 -54 -47 0 -48 0 5 58 6 57
-44 0 c-26 0 -44 -5 -44 -11z"/>
<path d="M834 411 c11 -12 19 -35 19 -54 -1 -17 -1 -45 -1 -62 0 -16 0 -47 0
-68 0 -21 -8 -49 -17 -63 -21 -33 -15 -39 17 -15 16 13 29 17 39 10 23 -14 30
-10 19 10 -5 11 -10 44 -10 73 l1 53 33 -59 34 -59 36 69 36 69 -2 -71 c-2
-48 2 -77 11 -88 16 -19 21 -19 43 -2 15 11 15 18 6 48 -7 23 -7 45 -1 64 6
18 6 42 -1 67 -9 32 -7 44 7 69 17 30 17 30 -5 24 -13 -3 -36 -6 -51 -6 -23 0
-26 -3 -18 -17 7 -13 1 -33 -20 -75 -16 -32 -31 -58 -33 -58 -13 0 -67 114
-63 131 4 15 0 19 -21 19 -15 0 -38 3 -52 7 -25 6 -25 6 -6 -16z"/>
<path d="M1212 423 c-22 -4 -22 -5 -6 -18 16 -11 16 -17 6 -53 -12 -40 -14
-41 -45 -35 l-32 6 29 -24 28 -25 -25 -62 c-24 -60 -24 -75 1 -50 10 10 17 10
33 0 18 -11 19 -10 13 12 -3 14 -1 32 4 42 9 15 11 14 28 -10 l17 -28 14 26
c18 35 31 33 38 -7 7 -35 13 -37 85 -37 82 0 83 0 76 47 -5 38 -3 45 19 59 38
25 59 3 52 -53 -3 -33 0 -46 14 -59 18 -16 20 -16 33 2 20 27 10 114 -15 134
-19 15 -19 15 0 27 13 8 18 19 14 32 -3 11 0 34 6 52 9 27 8 30 -5 25 -9 -3
-24 -6 -35 -6 -15 0 -19 -7 -19 -38 0 -27 -7 -44 -22 -59 -49 -43 -51 -41 -46
30 l6 65 -39 4 c-27 2 -39 0 -39 -10 0 -7 7 -15 15 -18 16 -6 19 -46 6 -78 -4
-11 -3 -35 2 -55 10 -38 -3 -91 -22 -91 -23 0 -81 157 -81 220 0 34 -1 35 -43
36 -23 0 -52 -1 -65 -3z m67 -165 c-8 -15 -13 -17 -25 -7 -17 14 -18 35 -2 80
l12 34 13 -44 c9 -31 9 -49 2 -63z"/>
<path d="M1865 413 c30 -72 45 -116 55 -169 10 -49 18 -66 41 -83 l30 -22 26
21 c33 26 55 91 61 187 1 12 14 36 30 54 20 25 23 31 9 26 -10 -4 -32 -7 -48
-7 -24 0 -29 -4 -29 -24 0 -23 -26 -167 -36 -195 -9 -27 -25 5 -49 100 -14 52
-22 102 -19 112 6 18 -11 24 -21 7 -4 -7 -12 -7 -25 0 -27 14 -33 12 -25 -7z"/>
<path d="M2202 423 c-22 -4 -22 -5 -6 -18 16 -11 16 -17 6 -53 -12 -40 -14
-41 -45 -35 l-32 6 29 -24 28 -25 -25 -62 c-24 -60 -24 -75 1 -50 10 10 17 10
33 0 18 -11 19 -10 13 12 -3 14 -1 32 4 42 9 15 11 14 28 -10 l17 -28 14 26
c18 35 31 33 38 -8 5 -26 12 -34 28 -33 12 1 32 -3 45 -7 l22 -7 -24 35 c-28
42 -66 160 -66 208 0 32 -1 33 -43 34 -23 0 -52 -1 -65 -3z m67 -165 c-8 -15
-13 -17 -25 -7 -17 14 -18 35 -2 80 l12 34 13 -44 c9 -31 9 -49 2 -63z"/>
<path d="M601 399 c7 -13 9 -38 5 -63 -14 -83 -7 -139 21 -168 22 -23 29 -25
55 -16 16 6 52 8 79 6 50 -5 59 1 36 24 -20 19 -20 195 -1 202 30 12 14 31
-26 31 l-39 0 -3 -110 c-3 -106 -4 -110 -26 -113 -45 -7 -55 14 -48 103 7 88
-6 125 -45 125 -17 0 -18 -3 -8 -21z"/>
<path d="M10 50 c0 -7 435 -10 1285 -10 850 0 1285 3 1285 10 0 7 -435 10
-1285 10 -850 0 -1285 -3 -1285 -10z"/>
</g>
</svg>
